<?xml version="1.0" encoding="UTF-8" standalone="no"?>
<!-- Created with Inkscape (http://www.inkscape.org/) -->

<svg
   width="276.30994mm"
   height="266.09824mm"
   viewBox="0 0 276.30994 266.09824"
   version="1.1"
   id="svg1"
   xml:space="preserve"
   inkscape:version="1.4 (e7c3feb1, 2024-10-09)"
   sodipodi:docname="BPC_logo.svg"
   xmlns:inkscape="http://www.inkscape.org/namespaces/inkscape"
   xmlns:sodipodi="http://sodipodi.sourceforge.net/DTD/sodipodi-0.dtd"
   xmlns="http://www.w3.org/2000/svg"
   xmlns:svg="http://www.w3.org/2000/svg"><sodipodi:namedview
     id="namedview1"
     pagecolor="#ffffff"
     bordercolor="#666666"
     borderopacity="1.0"
     inkscape:showpageshadow="2"
     inkscape:pageopacity="0.0"
     inkscape:pagecheckerboard="0"
     inkscape:deskcolor="#d1d1d1"
     inkscape:document-units="mm"
     inkscape:zoom="0.11313708"
     inkscape:cx="-1153.4679"
     inkscape:cy="2050.6097"
     inkscape:window-width="2560"
     inkscape:window-height="1387"
     inkscape:window-x="1440"
     inkscape:window-y="25"
     inkscape:window-maximized="1"
     inkscape:current-layer="layer1" /><defs
     id="defs1" /><g
     inkscape:label="Layer 1"
     inkscape:groupmode="layer"
     id="layer1"
     transform="translate(21.352248,15.726982)"><path
       style="fill:#0b0808;stroke:none"
       d="M -7.5093812,86.285088 C -0.13624117,103.9012 15.721039,123.4144 34.471179,129.12309 c 6.78669,2.06628 14.25604,2.2009 21.16667,0.72653 1.75372,-0.37418 6.76945,-2.74697 8.08366,-1.11389 1.82023,2.26188 2.22199,6.09407 3.52452,8.70214 2.69925,5.4048 6.78951,10.46779 7.07515,16.93333 0.19439,4.40004 -1.17384,8.08976 -1.68494,12.34723 -0.59224,4.93329 -0.0536,10.31429 0.85608,15.16944 1.23256,6.57819 3.2409,13.04578 6.22179,19.05 2.06884,4.16714 5.45496,8.46977 6.43275,13.05278 0.62678,2.93782 -0.63009,5.00701 -1.16721,7.76111 -0.91146,4.67351 -0.39597,9.88277 2.59493,13.75833 2.62953,3.40729 6.98843,4.55151 9.82878,7.54607 1.97738,2.08474 2.27708,5.1465 5.154211,6.41723 3.77707,1.6682 10.0294,0.50059 14.11083,0.50059 h 13.75833 c 2.15426,0 4.73589,0.39533 6.63771,-0.83513 2.4039,-1.55529 2.79376,-4.8952 5.04097,-6.59062 3.41349,-2.57534 8.09684,-5.36514 9.76291,-9.50758 1.23946,-3.08173 1.86502,-6.94002 1.27175,-10.23056 -0.59774,-3.31528 -2.40515,-5.68774 -1.49168,-9.17222 1.44421,-5.50894 5.31772,-10.29399 7.55531,-15.52222 3.53783,-8.26629 5.24111,-16.49955 6.08815,-25.4 0.58233,-6.11892 -2.2046,-11.84312 -2.05162,-17.99167 0.15751,-6.32984 5.02773,-11.61514 7.35199,-17.28611 1.0365,-2.52896 1.51793,-6.59589 3.25639,-8.69314 1.09239,-1.31783 6.44052,0.68368 8.08368,0.96062 7.24942,1.22176 14.39797,1.25895 21.51944,-0.83784 18.62296,-5.48324 34.33884,-25.16731 41.62778,-42.582422 -12.62163,-7.71793 -30.27654,-11.00318 -43.3865,-2.65726 -5.97401,3.8031 -9.42897,10.21538 -16.23295,13.22671 -5.27816,2.33603 -10.2816,3.247212 -12.97548,-2.45556 -0.45464,-0.96246 -1.45344,-2.26669 -1.35965,-3.37807 0.17084,-2.02439 3.1128,-4.39627 4.39773,-5.78898 5.30961,-5.75494 12.19719,-9.33651 19.10962,-12.79227 14.60463,-7.30134 32.90008,-12.95427 44.43612,-24.9604 7.57572,-7.88445 11.61957,-18.07431 13.92193,-28.57472 1.14829,-5.23704 1.09291,-10.5862003 1.7149,-15.8750003 0.21144,-1.79795 0.61545,-5.72594 -0.46304,-7.29075 -1.05375,-1.52889 -2.37449,0.26277 -2.73483,1.29897 -1.27556,3.66821 -2.01284,7.5669 -3.25285,11.28344 -4.84088,14.5088703 -12.77599,26.1230203 -27.51667,31.8858303 -7.29665,2.85258 -15.38063,3.33797 -22.57778,6.51769 -10.48898,4.63406 -20.41914,9.04372 -30.33889,14.86974 -2.82678,1.66021 -5.50498,3.33996 -8.11388,5.32868 -1.26295,0.96273 -2.9573,2.69083 -4.58612,2.92784 -1.60427,0.23342 -3.5166,-1.4983 -4.93888,-2.11204 -3.42736,-1.47898 -7.19827,-2.86464 -10.93611,-3.26483 -7.60346,-0.81408 -13.22594,5.21792 -20.46111,5.21792 -5.77793,0 -10.85548,-5.22746 -16.58056,-5.27752 -4.409981,-0.0386 -8.950981,1.06957 -13.052781,2.6178 -1.73047,0.65316 -4.52466,2.87013 -6.35,2.58866 -1.70091,-0.26228 -3.53688,-2.03917 -4.93889,-2.97385 -3.76263,-2.50841 -7.51343,-5.03578 -11.28888,-7.52484 -7.96401,-5.25043 -17.02441,-8.32869 -25.75278,-12.09461 -18.72274,-8.07806 -41.31073017,-10.36791 -50.6184402,-31.29813 -2.1215698,-4.77075 -2.4497498,-10.4146503 -3.1532198,-15.5222203 -0.60833,-4.41675 -0.0953,-9.49762 -1.15034,-13.7566997 -0.47527,-1.91868 -2.44327,-2.79148 -4.22844,-1.70237 -1.96717,1.20014 -1.97808,4.9523 -2.17301,6.9923997 -0.6468,6.76935 -1.27736,14.04496 -0.46737,20.8138903 0.61118,5.1075 0.95378,10.73276 2.99588,15.52222 2.18088,5.11493 4.73953,10.24485 8.3939998,14.46253 13.90662,16.04988 36.2005002,20.42948 53.9287202,30.59422 6.25912,3.58875 12.57203,8.76489 17.26324,14.20992 1.35246,1.56978 4.36831,4.9023 3.60182,7.05555 -2.49923,7.020892 -11.01483,4.08317 -15.92617,0.93557 -5.15537,-3.30399 -8.66728,-8.82781 -13.75969,-11.91932 -13.3088,-8.07951 -30.2448402,-4.59676 -43.0375402,2.86986 M 83.507289,72.879538 c -1.65146,2.83146 -4.72558,3.53856 -7.05556,5.67737 -4.00326,3.67481 -6.85531,7.77862 -9.17222,12.66707 -2.33534,-2.07435 -3.59977,-5.10155 -5.70569,-7.40316 -4.02881,-4.4032 -9.224,-8.53176 -14.40264,-11.49603 -8.63429,-4.94229 -18.08083,-9.36754 -27.16389,-13.40148 -13.5743702,-6.02862 -28.4194802,-13.36 -34.41271,-28.02433 -4.50119,-11.0136 -4.83465,-21.8186503 -4.07137,-33.5138903 0.17758,-2.72085 0.41239,-5.397 0.67697,-8.1138897 0.0628,-0.6453 -0.18577,-2.67931 0.85691,-2.70026 0.98951,-0.0199 1.23216,1.2611 1.24425,1.99499 0.0441,2.6778697 -0.11926,5.4388397 0.13528,8.1136097 0.94282,9.90732 2.66658,22.8047403 9.8320498,30.3388903 5.38126003,5.65814 12.71189,10.43898 20.0941802,13.06638 5.15381,1.83428 10.68275,2.69144 15.875,4.60545 8.69224,3.2042 17.62252,7.54166 26.10555,11.36591 5.93275,2.67453 11.96835,6.53198 17.28611,10.27549 3.18314,2.24082 6.1897,5.14997 9.87778,6.54788 M 253.54617,-3.6732423 c 0,16.6169403 -3.69525,38.8130503 -16.93333,50.3451403 -13.67701,11.91445 -31.41944,16.94438 -46.91944,25.75577 -7.48609,4.25566 -15.45849,8.79347 -20.10834,16.32687 h -0.35277 c -1.94913,-5.72409 -7.2582,-12.64066 -12.34723,-15.875 3.88385,-5.27625 10.6152,-8.66207 16.22778,-11.75163 8.87504,-4.88545 17.86383,-9.86118 27.51667,-13.1135 12.0045,-4.04467 24.37394,-5.4777 34.57222,-13.75261 11.51297,-9.34163 14.65836,-24.3214403 17.63889,-37.9350403 h 0.70555 m -150.98888,4.23333 v 0.35278 l 6.35,0.70556 c 1.15443,9.1345003 1.53483,19.4105503 0.4535,28.5750003 -0.26872,2.27748 0.63233,6.80835 -1.06815,8.61174 -1.2763,1.35354 -4.69765,1.18934 -6.44091,1.61881 v 0.35278 h 19.05 c 4.00979,0 8.07832,0.26743 11.64167,-1.92912 9.76146,-6.01725 3.36161,-19.02867 -6.70278,-19.23755 2.47074,-1.44674 5.07826,-2.09595 6.82663,-4.58639 3.41039,-4.85793 0.56577,-11.8252003 -4.70996,-13.7262103 -7.22654,-2.60395 -17.76055,-0.7374 -25.4,-0.7374 m 20.81389,18.3444503 v -0.35278 c 9.54216,-3.04689 6.46209,-16.0774903 -2.46945,-17.2861103 3.47335,-1.44386 8.25813,1.71738 9.47927,4.93889 2.12713,5.6116103 -0.9384,11.7899303 -7.00982,12.7000003 M 112.43507,1.6184277 V 39.365648 h -1.76389 V 1.6184277 h 1.76389 m 3.175,16.9333303 c -0.0538,-2.60658 -0.56158,-5.1378 -0.25206,-7.76111 0.25154,-2.1319103 -0.49269,-6.4905403 0.96224,-8.2048003 2.1168,-2.49412 8.76518,0.31553 10.29642,2.26881 2.95406,3.76829 1.87741,10.0857403 -2.18744,12.5633603 -2.75567,1.67966 -5.76545,1.51968 -8.81916,1.13374 m 6.34999,21.51944 v -0.35277 c 12.10573,-0.25124 13.87627,-17.24363 1.76389,-19.40278 3.46506,-1.3519 8.06271,2.39008 9.476,5.29167 3.53512,7.25782 -2.9014,16.92325 -11.23989,14.46388 m -6.34999,-19.40277 c 2.5619,-0.32378 4.85254,-0.39712 7.40833,0.0923 7.66424,1.46761 12.11046,12.92202 3.88027,17.06046 -2.34137,1.17734 -9.57532,2.44315 -11.07574,-0.71103 -0.85688,-1.80131 -0.56241,-5.61264 -0.56564,-7.62227 -0.005,-2.9763 0.11928,-5.86127 0.35278,-8.81944 m 121.35555,68.43889 c -1.99194,3.74179 -4.54738,7.21022 -7.10129,10.58333 -1.9425,2.565572 -4.05298,4.975292 -6.15484,7.408332 -10.0738,11.66117 -29.10311,27.32577 -44.9522,16.66901 -4.86437,-3.27073 -3.05171,-7.10015 -4.6626,-12.0829 -1.21904,-3.77072 -4.07647,-6.63613 -6.97907,-9.17222 1.37326,4.22034 2.70765,8.57466 2.81705,13.05278 0.0342,1.40146 0.29109,3.58028 -0.67862,4.74018 -1.221,1.46047 -4.67305,1.98809 -6.37176,2.97738 -4.39084,2.55709 -8.33419,7.02452 -9.525,12.03799 4.36721,1.19162 6.39194,0.8174 10.58333,-0.70555 -0.0617,7.36376 -8.44884,11.37637 -8.65858,19.05 -0.10617,3.88462 1.74412,7.77674 2.20785,11.64166 0.83703,6.97604 0.43111,13.94394 -1.03193,20.81389 -1.13368,5.32336 -3.0847,10.73384 -5.679,15.52223 -1.86053,3.43398 -4.81162,6.69851 -5.70162,10.58333 -0.69046,3.0139 1.2473,5.58433 1.76607,8.46667 1.17891,6.55013 -1.02918,11.93841 -6.5389,15.65124 -2.70055,1.81982 -5.46366,1.07469 -8.46667,0.9432 -4.56837,-0.20005 -9.18535,-0.0139 -13.75833,-0.0139 -5.87589,0 -15.8407,2.27732 -20.813611,-1.28345 -4.45024,-3.18652 -7.37611,-8.70758 -6.53429,-14.23877 0.48415,-3.18112 2.45507,-6.25877 1.70782,-9.525 -0.81483,-3.56163 -3.3192,-6.35314 -4.9604,-9.525 -3.05287,-5.90011 -5.47881,-12.1445 -6.70196,-18.69722 -1.31833,-7.0626 -1.35102,-14.06758 -0.34407,-21.16667 0.45186,-3.18561 2.19765,-6.2556 1.95063,-9.525 -0.5795,-7.66969 -8.94852,-11.6154 -9.1069,-19.05 2.20682,1.03008 8.80916,4.37025 10.49841,0.56782 1.33883,-3.01362 -5.34523,-8.94646 -7.32341,-10.38953 -1.89359,-1.38135 -7.29459,-2.65171 -8.2048,-4.69308 -2.10225,-4.71476 0.90436,-12.64284 2.20758,-17.23521 -3.061,2.67595 -5.57751,5.59576 -6.87236,9.525 -1.68334,5.10812 0.0587,8.63999 -5.12208,11.9626 -15.93243,10.21796 -33.24794,-5.23323 -43.73056,-16.19593 -2.32042,-2.4267 -4.47958,-5.07833 -6.4956302,-7.76111 -2.5883,-3.444292 -5.42837,-7.028332 -7.27658997,-10.936112 7.95520997,-2.54372 19.67941017,-5.74008 27.51667017,-1.28427 7.18317,4.08394 12.95605,10.25501 20.46111,14.070282 3.25248,1.65344 6.46324,3.28206 10.23055,2.62025 8.17381,-1.43591 10.74234,-13.982562 14.58801,-19.960802 3.44916,-5.36184 12.55252,-9.82536 18.5731,-11.3572 5.56398,-1.41567 11.516011,-1.20709 16.933341,0.76135 2.68153,0.97438 6.37323,3.8149 9.17222,3.78609 3.68556,-0.0379 8.56216,-3.62734 12.34722,-4.54662 9.78007,-2.37529 19.11968,0.64057 27.16389,6.28737 5.82466,4.08876 8.55027,9.80654 11.88555,15.97355 1.95929,3.62275 4.01031,8.253982 8.57556,9.056262 3.88749,0.68317 7.24154,-1.07262 10.58333,-2.79745 7.48705,-3.864382 13.45043,-10.296732 20.81389,-14.083082 7.74927,-3.98474 19.33661,-0.74698 27.16389,1.47427 m -131.23333,-14.11112 0.35278,0.35278 -0.35278,-0.35278 m 27.16389,0.35278 -1.05834,4.23334 -17.28611,-0.35278 -6.70278,0.70555 -2.11666,-3.88055 c -1.73876,1.12728 -1.1528,4.03349 -0.2861,5.64444 2.34168,4.3525 7.00621,7.57634 10.51665,10.93611 -6.04261,2.87127 -11.83874,7.840632 -11.28889,14.816672 3.62407,-1.3886 7.85689,-0.64354 11.64167,-0.38435 5.09515,0.34892 10.4218,0.38435 15.52222,0.38435 0.0363,1.51545 -0.22996,3.67317 -1.83901,4.37325 -2.62219,1.14088 -7.38383,0.18373 -10.15543,-0.08 -4.16747,-0.39659 -8.51382,-0.0599 -12.7,-0.0599 1.32524,2.36204 3.96834,1.76298 6.35,1.76389 5.04265,0.002 10.10347,0.35278 15.16944,0.35278 -1.57294,1.50542 -3.52868,3.69983 -5.64444,4.38713 -7.86391,2.5546 -17.83464,-3.37425 -18.69722,-11.79546 h -0.35278 c -0.001,2.18904 -0.66189,4.55411 -0.16605,6.70277 0.90752,3.93266 7.18941,9.98153 10.74938,11.64167 -4.60725,4.01237 -13.53507,9.4496 -10.93611,16.58056 h 0.35278 c 0.83416,-2.87552 4.27627,-2.14419 6.70278,-2.11531 6.69007,0.0796 13.41154,0.70419 20.10833,0.70419 l 1.76389,1.41112 c 1.14773,-6.18563 -5.19841,-13.12218 -10.58334,-15.52223 3.9244,-5.11611 13.53957,-8.16241 11.64167,-16.22777 h -0.35278 l -2.11666,2.82222 c 5.14932,-7.89123 -0.80674,-15.782672 -8.46667,-19.755562 3.80821,-2.73558 8.37074,-5.82461 10.88521,-9.87777 0.88614,-1.42841 1.85663,-4.3748 0.40368,-5.64445 l 0.35278,-1.76389 h -1.41111 m 1.05833,1.76389 c -0.68738,2.89131 -3.06784,4.00333 -5.29167,5.61859 -6.31118,4.58405 -16.18215,5.28178 -20.46111,-2.79637 4.30917,2.37054 11.37978,1.41111 16.22778,1.41111 1.70078,0 4.08308,0.41937 5.64444,-0.36257 1.64368,-0.82316 2.63882,-2.5901 3.88056,-3.87076 m -11.99445,10.58333 c -1.48169,2.43942 -3.30976,1.75283 -5.29166,0.35278 l 5.29166,-0.35278 m 1.76389,11.28889 -9.87777,-0.35277 c 3.27019,-3.68421 7.20718,-4.63442 9.87777,0.35277 m 7.05556,6.702782 -23.98889,-0.35278 c 2.66943,-5.827512 8.38803,-4.58611 13.75833,-4.58611 1.77569,0 4.37006,-0.46878 5.99206,0.36258 1.68797,0.86517 3.17028,3.05389 4.2385,4.57631 m 0.35278,6.70278 -1.41111,1.05833 v -0.35278 l 1.41111,-0.70555 m -9.87778,7.76111 v 0.35278 c -2.15788,1.44668 -3.54524,1.89962 -5.29167,-0.35278 h 5.29167 m 1.41111,11.28889 -9.87778,-0.35278 c 3.38705,-3.45392 7.16537,-4.71252 9.87778,0.35278 m 7.05556,6.70278 -23.63611,-0.35278 c 2.01587,-5.92983 8.43159,-4.58611 13.40555,-4.58611 1.78383,0 4.36306,-0.46367 5.99587,0.36257 1.72429,0.87254 3.15525,3.02568 4.23469,4.57632 m 5.99722,6.70277 c -7.99551,12.12368 -4.97412,26.86546 3.07266,38.1 2.75622,3.84811 6.3366,8.16113 10.68567,10.23056 -5.88702,-10.57408 -12.53063,-20.15325 -14.31282,-32.45556 -0.77986,-5.38322 1.1999,-10.78284 0.55449,-15.875 m -33.86667,0.35278 c 1.52439,11.80436 0.60205,21.89744 -4.677301,32.80833 -2.54641,5.26269 -6.25191,9.93476 -8.72825,15.16945 11.825071,-6.03654 19.930841,-23.43255 18.087201,-36.33611 -0.55914,-3.91337 -1.78486,-8.78426 -4.68165,-11.64167 M -7.8621512,155.42957 v 0.35277 l 6.70277,1.05834 v 37.74722 l -6.70277,1.05833 v 0.35278 H 12.951739 v -0.35278 c -1.79585,-0.43251 -5.1890902,-0.15033 -6.4899202,-1.59241 -1.65406,-1.83365 -0.91842,-7.35439 -0.91842,-9.69648 0,-8.9387 0.35181,-17.9005 0.35278,-26.81111 2.96766,-0.0613 5.7048202,-0.73996 8.4666702,0.83514 5.56817,3.17556 7.18933,11.88392 2.4542,16.41396 -2.86794,2.7437 -6.78784,3.21161 -10.5680902,3.21201 10.8356902,5.76081 25.2855802,-8.24613 17.0166202,-18.66537 -2.72354,-3.43177 -7.31177,-3.9124 -11.37218,-3.9124 H -7.8621512 m 19.7555502,22.93055 v -0.35278 c 12.56189,-1.85518 10.83447,-20.95985 -1.41111,-21.51944 4.40159,-1.84282 9.83993,2.41729 11.25704,6.35 2.74201,7.60946 -1.55821,15.16087 -9.84593,15.52222 M 2.3683988,156.4879 v 38.45278 H 0.60450883 V 156.4879 H 2.3683988 M 245.43228,190.00179 c -3.93761,2.77375 -6.30118,5.13192 -11.28889,5.84615 -3.60313,0.51595 -7.82112,-0.50578 -10.93611,-2.35132 -10.36147,-6.13877 -13.27012,-23.59337 -2.82086,-31.30821 4.84329,-3.57588 10.47595,-3.79042 16.22642,-3.17254 1.66943,0.17936 4.47989,0.17484 5.8173,1.30222 1.40851,1.18733 1.74249,4.34412 2.29659,6.04759 h 0.35278 l -0.35278,-9.17222 c -6.56681,0 -14.02613,-1.30027 -20.46111,-0.0689 -3.91062,0.74831 -7.64745,2.2884 -10.58198,5.03959 -10.22571,9.58682 -8.0708,28.8977 5.64309,34.16473 5.36276,2.05965 10.94741,2.02994 16.58055,1.49386 1.55366,-0.14786 4.08403,0.4819 5.42941,-0.42245 1.8234,-1.22571 3.49313,-5.35043 4.09559,-7.39854 m -12.7,-32.45556 v 0.35278 h -5.29166 l 5.29166,-0.35278 m -5.64444,0.35278 v 0.35278 c -13.22923,1.08055 -20.25146,16.97982 -14.47043,28.22222 3.63731,7.07351 11.38466,10.57825 19.05654,10.58333 -7.22322,3.03098 -17.87141,-4.25249 -21.05261,-10.23055 -6.47941,-12.176 2.36497,-28.81108 16.4665,-28.92778 M 91.973949,195.64619 c 17.025621,-9.443 36.566351,-9.45988 53.622231,0 -3.88146,-6.81237 -11.36277,-12.54213 -19.40278,-12.34205 -2.50599,0.0624 -4.6815,1.69341 -7.05556,1.77859 -2.50398,0.0898 -5.11088,-1.71365 -7.76111,-1.77859 -8.08641,-0.19812 -15.499911,5.49204 -19.402781,12.34205 m 3.96113,5.00857 c -1.93277,0.95636 -0.73473,3.63296 0.14455,4.86921 1.6946,2.38259 7.417761,8.14561 10.705821,6.65214 7.72985,-3.51094 -6.09868,-13.87254 -10.850371,-11.52135 m 45.407071,-0.16059 c -4.20491,-0.54258 -8.87086,2.73838 -11.4111,5.74052 -1.82952,2.16223 -1.89375,5.4422 1.55401,6.17633 3.27935,0.69828 8.66879,-4.86409 10.2997,-7.23983 0.83065,-1.21004 1.86345,-4.37947 -0.44261,-4.67702 m -28.90708,4.67702 c 0.36677,2.49277 1.29763,4.85922 1.39696,7.40834 0.37737,9.68472 -9.99159,6.43479 -15.860851,5.64444 3.438221,4.65794 13.154361,7.44944 17.038131,1.75844 2.85113,-4.17784 0.32818,-11.30829 -2.57424,-14.81122 m 12.34722,0 c -1.78448,4.28611 -4.88168,9.42716 -2.32219,14.11083 3.2414,5.93153 14.18021,4.46633 17.13885,-1.05805 -4.99961,0.96958 -14.82758,3.92784 -15.80967,-3.88055 -0.37132,-2.95226 1.77866,-6.51649 0.99301,-9.17223 m 13.40555,37.74723 c -1.65763,3.8379 -4.4477,3.175 -8.11389,3.175 h -20.46111 c -3.88303,0 -6.95356,0.8128 -8.81944,-3.175 z"
       id="path1" /></g></svg>
